<?xml version="1.0" encoding="utf-8"?>
<!-- Generator: Adobe Illustrator 23.0.2, SVG Export Plug-In . SVG Version: 6.00 Build 0)  -->
<svg version="1.1" xmlns="http://www.w3.org/2000/svg" xmlns:xlink="http://www.w3.org/1999/xlink" x="0px" y="0px"
	 viewBox="0 0 448.5 145.5" style="enable-background:new 0 0 448.5 145.5;" xml:space="preserve">
<style type="text/css">
	.st0{enable-background:new    ;}
	.st1{fill-rule:evenodd;clip-rule:evenodd;fill:#FFFFFF;}
</style>
<g id="图层_2">
</g>
<g id="图层_1">
	<g id="椭圆_2_1_" class="st0">
		<path class="st1" d="M105.6,0H81.8v18.7h-48v9.8h48v18H48.1v11.1h67.4c0,0,0,15.9-20.3,37.6S67.4,120.2,57.8,123s-26,2.4-31.5-1.5
			s-11.8-8.9-11.3-18S26.9,84.1,33.9,83c0,0-20-2.2-24.5,18.1c-3.5,15.6,6.6,23.3,12.4,27.2s18.2,8.5,26.3,9s25.8-0.6,42.7-12.8
			c16.8-12.2,37.3-36.7,43.5-51.8s8.9-21.3,9.8-26.2h-38.4v-18h50.2v-9.8h-50.2V0"/>
		<path class="st1" d="M186,0c0,0-2.5,21.5-33.8,45l3.6,5.3c0,0,13.9-5.5,17.4-8.3v80.3H198V25.5c0,0,12-12.5,12-25.5
			C210,0,186,0,186,0z"/>
		<polygon class="st1" points="246,0 246,27 202.5,27 202.5,36.1 246,36.1 246,121.5 270.1,121.5 270.1,36.1 281.3,36.1 281.3,27 
			270.1,27 270.1,0 		"/>
		<path class="st1" d="M364.5,0v11.2H411v7.5c0,22.1-14.2,24.8-14.2,24.8h-32.3V63h32.3v9.8h-32.3v45.8h-24.7V72.8h-34.6V63h34.6
			V43.5h-49.5V8.3h23.1v3h26.4V0H364.5z M313.3,21.5v13h77.4v-13H313.3z"/>
	</g>
	<g id="椭圆_1_1_" class="st0">
		<path class="st1" d="M44.1,136.7c0,0-22.5-3.7-32.1-20.5c-3.7-6.4-4-19.3,6-27.8c8.4-7.1,19.5-6.6,33.8-3s24.4,8.1,42.8,17.3
			c18.5,9.3,44.9,22.5,78.7,29.6c33.7,7.1,52.3,9.4,72.8,10.9c35.4,2.6,149.4-2.4,165-6l37.5-39c0,0-112.9,17.4-183.8,18
			c-70.8,0.6-78.8-3.7-95.3-6.8S109.6,92.3,96.8,87c-6.3-2.6-41.7-16.3-63-14.3S1.2,84,0.8,98.3S5.8,132.2,44.1,136.7z"/>
		
			<rect x="206.6" y="46.7" transform="matrix(0.7071 -0.7071 0.7071 0.7071 21.3683 174.6397)" class="st1" width="29.7" height="29.7"/>
		
			<rect x="378.4" y="78.9" transform="matrix(0.7071 -0.7071 0.7071 0.7071 50.7403 301.1491)" class="st1" width="20.9" height="20.9"/>
	</g>
</g>
</svg>
