<?xml version="1.0" encoding="utf-8"?>
<!-- Generator: Adobe Illustrator 23.0.2, SVG Export Plug-In . SVG Version: 6.00 Build 0)  -->
<svg version="1.1" id="Layer_1" xmlns="http://www.w3.org/2000/svg" xmlns:xlink="http://www.w3.org/1999/xlink" x="0px" y="0px"
	 viewBox="0 0 286.1 242.6" style="enable-background:new 0 0 286.1 242.6;" xml:space="preserve">
<g>
	<g>
		<path d="M192.8,141.2c5.5,0,10.1,2.7,14,8.1c3.9,5.4,6,12,6,19.9c0,7.9-2.1,14.5-6,19.9c-3.9,5.4-8.5,8.1-14,8.1
			c-5.7,0-10.7-2.7-14.6-8.1c-3.9-5.4-6-12-6-19.9c0-7.9,2.1-14.5,6-19.9C182.1,143.9,187.1,141.2,192.8,141.2 M263.1,68.4
			c15.2,16.6,23,36.7,23,60.4c0,15.3-1.8,29.1-5.3,41.3c-3.6,12.2-8.1,22.2-13.4,29.8c-5.4,7.7-12,14.4-19.9,20.2
			c-7.9,5.8-15.1,10.1-21.8,12.7c-6.6,2.7-14.2,4.8-22.7,6.3c-8.5,1.5-14.8,2.3-19.3,2.5c-4.4,0.2-9,0.3-14,0.3
			c-1.1,0-5,0.1-11.2,0.3c-6.2,0.3-11.4,0.3-15.6,0.3c-4.1,0-9.4-0.1-15.6-0.3c-6.2-0.2-10.1-0.3-11.2-0.3c-5,0-9.6-0.1-14-0.3
			c-4.5-0.2-10.8-1.1-19.3-2.5c-8.6-1.5-16.1-3.6-22.7-6.3c-6.6-2.7-13.9-6.9-21.7-12.7c-7.9-5.8-14.5-12.5-19.9-20.2
			c-5.3-7.7-9.8-17.6-13.4-29.8C1.8,157.9,0,144.1,0,128.8C0,105.1,7.7,85,23,68.4c-1.7-0.8-1.7-9.1-0.2-24.9
			C24.1,27.8,27.5,13.3,32.9,0C52,2,75.7,12.9,103.9,32.3c9.5-2.4,22.5-3.7,39.2-3.7c17.4,0,30.5,1.3,39.2,3.8
			c12.9-8.7,25.1-15.8,36.9-21.1c11.9-5.3,20.5-8.5,25.9-9.3l8.1-1.8c5.5,13.3,8.9,27.8,10.1,43.6C264.9,59.3,264.8,67.6,263.1,68.4
			 M143.7,228.3c34.5,0,60.4-4.1,78.1-12.4c17.5-8.3,26.4-25.3,26.4-51c0-14.9-5.6-27.4-16.8-37.4c-5.7-5.4-12.5-8.7-20.2-9.9
			c-7.7-1.2-19.4-1.2-35.2,0c-15.7,1.3-26.5,1.8-32.3,1.8c-7.9,0-16.4-0.4-27-1.2c-10.6-0.8-19-1.3-25-1.6c-6-0.2-12.4,0.6-19.6,2.2
			c-7.1,1.7-12.9,4.6-17.4,8.7c-10.6,9.6-16.1,22-16.1,37.4c0,25.7,8.7,42.8,26.2,51c17.4,8.3,43.2,12.4,77.7,12.4H143.7
			 M93.9,141.2c5.5,0,10.1,2.7,14,8.1c3.9,5.4,6,12,6,19.9c0,7.9-2.1,14.5-6,19.9c-3.9,5.4-8.5,8.1-14,8.1c-5.7,0-10.7-2.7-14.6-8.1
			c-3.9-5.4-6-12-6-19.9c0-7.9,2.1-14.5,6-19.9C83.2,143.9,88.2,141.2,93.9,141.2"/>
	</g>
</g>
</svg>
