<?xml version="1.0" encoding="utf-8"?>
<!-- Generator: Adobe Illustrator 23.0.2, SVG Export Plug-In . SVG Version: 6.00 Build 0)  -->
<svg version="1.1" id="PayPal" xmlns="http://www.w3.org/2000/svg" xmlns:xlink="http://www.w3.org/1999/xlink" x="0px" y="0px"
	 viewBox="0 0 512 145" style="enable-background:new 0 0 512 145;" xml:space="preserve">
<style type="text/css">
	.st0{fill:#FFFFFF;}
</style>
<path class="st0" d="M49.5,72.9c-3.7,0-7.3,0-11,0c-1.8,0-3.1,0.7-3.6,2.6c-1.2,4.2-6.3,22.9-7.6,28.1c-0.7,2.7-2.1,3.8-4.9,3.8
	c-5.7,0-11.5,0-17.2,0c-3.1,0-4.4-1.4-3.9-4.4c0.4-2.6,15.4-67.2,22.3-96.9C24.6,2.3,26.2,1,30.2,1c10.7,0,43.4,0.2,49.1,0.2
	C93.7,1.3,105.5,12.7,106,27c0.3,9.6-1.5,18.7-6.9,26.8c-5.3,7.9-12.8,12.8-21.7,15.7C68.3,72.5,59,73.4,49.5,72.9z M50.2,53
	c2.6-0.2,4.7-0.3,6.8-0.5c5.3-0.6,10.4-2,14.8-5.3c5-3.8,6.7-9,5.7-15.1c-0.9-5.6-4.6-8.6-9.7-10.3C62.6,20,57.2,20,51.8,20.4
	c-2.7,0.2-4.5,1.7-5.2,4.5c-0.6,2.6-1.5,5.2-2.1,7.8c-1.1,4.8-2.2,9.7-3.1,14.6c-0.6,3.1,0.5,4.7,3.5,5.2
	C46.8,52.9,48.7,52.9,50.2,53z"/>
<path class="st0" d="M203,143.6c3.1,0,6.2-0.1,9.3,0c2,0.1,3.5-0.5,4.7-2.2c1.9-2.8,63.4-102.9,68.5-111.7c1.3-2.2,0.5-4-1.9-4
	c-6.7-0.1-13.5,0-20.2,0.1c-1.7,0-3,0.9-4,2.5c-4.8,7.8-24.3,39.2-29.3,47.2c-0.3,0.5-1.1,1-1.5,0.9c-0.6-0.1-1.1-0.8-1.5-1.3
	c-0.2-0.3-0.2-0.7-0.3-1.1c-0.7-3.8-5.3-32.1-7-42.4c-0.7-4.4-2.9-6.1-7.3-6.1c-4.6,0-9.2,0.2-13.8,0.3c-3.6,0.1-5.6,2.4-5.1,5.9
	c0.3,1.9,12.4,66.7,14.5,77.4c0.1,0.5,0.2,1,0.1,1.4c-0.5,1.4-0.9,2.8-1.6,4c-4.7,7.5-9.5,15-14.2,22.5c-0.4,0.7-0.9,1.4-1.1,2.1
	c-0.6,2.5-0.8,4.2,2.9,4.2C197,143.3,203,143.5,203,143.6z"/>
<path class="st0" d="M149.8,99.2c-1.6,0.9-2.8,1.5-3.9,2.1c-2.9,1.6-5.7,3.1-8.6,4.8c-5.4,3.2-11.3,3.9-17.3,3.7
	c-3.1-0.1-6.2-0.4-9.1-1.2c-7.7-2-12.3-7-13.2-15.1c-0.8-6.6-0.1-13.1,3.3-19c3.8-6.7,9.9-10.3,16.9-12.6c6.3-2.1,12.9-2.6,19.5-2.7
	c5.2-0.1,10.4-0.3,15.7-0.4c0.6,0,1.2-0.2,1.8-0.1c2.5,0.1,3.6-1.5,4-3.6c0.3-1.7,0.6-3.6,0.4-5.3c-0.4-3.5-2.3-5.7-5.8-6
	c-4.3-0.5-8.6-0.7-12.9-0.6c-6.3,0.2-12.5,1-18.5,2.8c-0.9,0.3-1.8,0.7-2.8,1.1c-2.4,1-4.6-0.2-4.4-2.7c0.3-4.1,0.8-8.2,1.7-12.2
	c0.5-2.2,2.4-3.6,4.7-4c7.8-1.6,15.7-2.4,23.7-2.7c6.5-0.2,12.9,0,19.2,1.5c5.8,1.3,10.6,4.3,14.7,8.5c4.4,4.6,5.9,10.2,4.8,16.3
	c-2.1,11.3-9.4,45.5-10.7,51.4c-0.6,2.9-2.3,4.4-5.3,4.5c-5.5,0.2-11,0.2-16.5,0.3c-1.6,0-2.1-0.6-2-2.2
	C149.5,103.5,149.7,101.6,149.8,99.2z M147.7,70.1c0,0,0,0.1,0,0.1c-2.5,0.2-4.9,0.3-7.4,0.5c-4.1,0.4-8.1,1.1-11.8,2.9
	c-4.9,2.4-6.9,5.8-6.6,11.3c0.3,4.9,3.3,8.1,8.2,8.7c4,0.5,7.9,0.1,11.7-0.7c3.1-0.6,5.9-2,7.9-4.5c3.8-4.7,5-10.2,5-16.1
	c0-1.4-0.9-2.1-2.3-2.2C150.9,70.1,149.3,70.1,147.7,70.1z"/>
<path class="st0" d="M325.9,72.9c-3.6,0-7.3,0-11,0c-1.8,0-3.1,0.7-3.6,2.6c-1.2,4.2-6.3,22.9-7.6,28.1c-0.7,2.7-2.1,3.8-4.9,3.8
	c-5.7,0-11.5,0-17.2,0c-3.1,0-4.4-1.4-3.9-4.4c0.4-2.6,15.4-67.2,22.3-96.9c0.9-3.9,2.6-5.2,6.6-5.2c10.7,0,43.4,0.2,49.1,0.2
	C370,1.3,381.8,12.7,382.3,27c0.3,9.6-1.5,18.7-6.9,26.8c-5.3,7.9-12.8,12.8-21.7,15.7C344.6,72.5,335.3,73.4,325.9,72.9z M326.5,53
	c2.6-0.2,4.7-0.3,6.8-0.5c5.3-0.6,10.4-2,14.8-5.3c5-3.8,6.7-9,5.7-15.1c-0.9-5.6-4.6-8.6-9.7-10.3c-5.2-1.7-10.6-1.8-16.1-1.3
	c-2.7,0.2-4.5,1.7-5.2,4.5c-0.6,2.6-1.5,5.2-2.1,7.8c-1.1,4.8-2.2,9.7-3.1,14.6c-0.6,3.1,0.5,4.7,3.5,5.2
	C323.1,52.9,325,52.9,326.5,53z"/>
<path class="st0" d="M425.5,99.2c-1,0.4-1.6,0.6-2.2,0.9c-4.5,2.4-9.1,4.8-13.6,7.2c-4.4,2.3-9.2,2.6-14,2.6c-4,0-8-0.5-11.8-2.1
	c-6.6-2.8-10-7.9-10.7-14.9c-0.5-4.9-0.1-9.8,1.6-14.4c2.8-7.9,8.8-12.7,16.4-15.7c6.9-2.6,14-3.4,21.3-3.5
	c5.6-0.1,11.3-0.3,16.9-0.5c3.5-0.1,4.3-0.7,5.1-4.1c0.4-1.7,0.5-3.5,0.4-5.2c-0.3-3.2-2.3-5.4-5.7-5.9c-3.7-0.5-7.5-0.8-11.2-0.7
	c-7,0.2-13.9,1-20.6,2.9c-0.8,0.2-1.6,0.6-2.4,1c-2.6,1.2-4.8,0-4.5-2.8c0.3-3.8,0.8-7.6,1.5-11.4c0.4-2.3,2-3.9,4.4-4.3
	c4.8-0.8,9.6-1.8,14.5-2.1c6.1-0.5,12.3-0.7,18.5-0.6c8,0.2,15.6,1.7,22.1,7c3.9,3.2,6.9,6.9,7.8,12c0.6,3.6,0.2,7.2-0.5,10.7
	c-3.3,15.5-6.6,31-9.9,46.5c-0.9,4.1-2.3,5.4-6.4,5.5c-5.1,0.2-10.2,0.2-15.2,0.3c-1.8,0-2.2-0.4-2.1-2.2
	C425.3,103.5,425.4,101.6,425.5,99.2z M425.8,70.1c-3.2,0.2-6.7,0.3-10.2,0.7c-4,0.4-7.9,1.2-11.4,3.1c-3.3,1.7-5.6,4.3-6,8.1
	c-0.6,5.3,1.2,10.9,8.4,11.7c4.3,0.5,8.4,0.1,12.5-0.9c3.8-0.9,6.8-3.2,8.7-6.6c2.3-4,3.2-8.4,3.4-12.9c0.1-2.3-0.9-3.1-3.2-3.2
	C427.4,70,426.7,70.1,425.8,70.1z"/>
<path class="st0" d="M484.4,107.4c2.3-0.1,2.8-0.5,3.3-2.5c2.1-8.7,17.5-74.1,23.2-98.1c0.6-2.6-1.2-4.9-4-4.9
	c-5.4,0-10.8-0.1-16.2-0.1c-3.3,0-4.9,1.2-5.6,4.4c-1.2,4.8-20.7,93.9-21.3,98c-0.3,2,0.8,2.9,2.9,2.9
	C469.5,107.2,482.9,107.4,484.4,107.4z"/>
</svg>
