<?xml version="1.0" encoding="utf-8"?>
<!-- Generator: Adobe Illustrator 23.0.2, SVG Export Plug-In . SVG Version: 6.00 Build 0)  -->
<svg version="1.1" id="图层_1" xmlns="http://www.w3.org/2000/svg" xmlns:xlink="http://www.w3.org/1999/xlink" x="0px" y="0px"
	 viewBox="0 0 531.2 161.7" style="enable-background:new 0 0 531.2 161.7;" xml:space="preserve">
<style type="text/css">
	.st0{fill:#FFFFFF;}
</style>
<g>
	<path class="st0" d="M68.6,0C31.1-0.6,0,27,0,59.5c0,18.8,8.8,35,25.9,47c0,0-6.3,20.7-6.2,21.1c0.1,0.4,1.5,1.2,1.9,1
		c0.4-0.2,22.6-13.5,22.6-13.5c17,5.8,26.9,3.9,27.4,3.9c-1.7-5-2.8-12.7-1.5-20c6.6-38.1,45.6-50,67-47.9
		C131.2,23.4,105.6,0.5,68.6,0z M42.5,49.1c-4.9,0-8.9-4-8.9-8.9s4-8.9,8.9-8.9s8.9,4,8.9,8.9S47.4,49.1,42.5,49.1z M96.4,49.1
		c-4.9,0-8.9-4-8.9-8.9s4-8.9,8.9-8.9s8.9,4,8.9,8.9S101.4,49.1,96.4,49.1z"/>
	<path class="st0" d="M192,104.7c0-27.8-26.9-49.2-58.1-49.2c-33.1,0-59.4,21.8-59.4,49.6c0,27.9,25.1,51,59.5,51.2
		c6.9,0,17.2-1.7,24.2-4.6c0,0,16.6,10.1,17.5,10s1.4-0.8,1.4-1.4s-5.3-16.4-5.3-16.4C186,132.7,192,120.4,192,104.7z M112.1,94.4
		c-4.4,0-7.9-3.5-7.9-7.9s3.5-7.9,7.9-7.9s7.9,3.5,7.9,7.9S116.4,94.4,112.1,94.4z M154.2,94.4c-4.4,0-7.9-3.5-7.9-7.9
		s3.5-7.9,7.9-7.9s7.9,3.5,7.9,7.9S158.6,94.4,154.2,94.4z"/>
</g>
<g>
	<g>
		<polygon class="st0" points="277.6,66.5 265.7,115.5 255.7,66.5 240.5,66.5 230.5,115.5 218.6,66.5 203.8,66.5 223.7,136 
			237.2,136 248,82.8 258.8,136 272.4,136 292.3,66.5 		"/>
		<path class="st0" d="M328.3,89.8c-4.3-4.7-10.3-7.1-18.2-7.1c-7.4,0-13.2,2.5-17.5,7.3c-4.3,4.9-6.4,11.5-6.4,19.9
			c0,8.6,2.2,15.3,6.5,20.3s10.2,7.5,17.6,7.5c6,0,11.1-1.5,15.3-4.6c4.2-3.1,7-7.3,8.4-12.7h-13.6c-0.9,1.9-2.1,3.4-3.6,4.1
			c-1.5,0.9-3.4,1.4-5.8,1.4c-3.4,0-5.9-1.1-7.7-3.1c-1.7-2-2.7-5.1-2.9-9.1h34.2c0-0.4,0.1-0.9,0.1-1.4s0-1.2,0-2.2
			C334.7,101.3,332.6,94.5,328.3,89.8z M300.4,104.9c0.3-3.4,1.3-6,3-7.9c1.7-1.8,4-2.7,7-2.7c3.2,0,5.7,0.9,7.4,2.7
			c1.8,1.8,2.7,4.4,2.8,7.9H300.4z"/>
	</g>
	<g>
		<path class="st0" d="M402.7,112.2L402.7,112.2C402.7,112.1,402.7,112.2,402.7,112.2L402.7,112.2z"/>
		<path class="st0" d="M383.4,121.7c-2.8,2.2-6.4,3.3-10.7,3.3c-6,0-10.6-2.1-13.9-6.2s-4.9-10-4.9-17.5c0-7.8,1.6-13.7,4.9-17.8
			c3.2-4.1,8-6.1,14.3-6.1c4.5,0,8,1,10.6,3.1s4.2,5.1,4.8,9h14.1c-0.5-7.9-3.4-14-8.5-18.3s-12.1-6.5-21-6.5
			c-10.9,0-19.3,3.1-25.1,9.4s-8.7,15.4-8.7,27.2c0,11.6,2.9,20.6,8.6,27s13.7,9.6,24,9.6c8.9,0,16.2-2.3,21.7-7
			c5.5-4.6,8.6-10.8,9.1-18.7h-13.9C388,116.3,386.2,119.5,383.4,121.7z"/>
		<path class="st0" d="M448.5,89.3c-1.5-1.9-3.5-3.4-5.9-4.4c-2.5-1.1-5.2-1.6-8.2-1.6c-3.2,0-6.1,0.6-8.6,1.8
			c-2.5,1.2-4.7,3-6.6,5.3V66.5h-13.6v69.3h13.6v-30.4c0-3.3,0.9-6,2.8-7.9s4.5-2.9,7.7-2.9c3,0,5.2,0.7,6.3,2.4
			c1.1,1.7,1.7,5.7,1.7,12v26.8h13.6v-33.2v-0.9c0-3.7-0.2-6.3-0.6-8C450.3,92.1,449.5,90.6,448.5,89.3z"/>
		<path class="st0" d="M500.7,131.4c-0.5-1.1-0.7-2.7-0.7-4.8V97.5c0-4.7-1.9-8.3-5.7-10.8S485,83,477.8,83
			c-6.6,0-11.7,1.5-15.4,4.5s-5.6,7.1-5.6,12.4v0.9h12.8V100c0-2,0.7-3.6,2.2-4.7s3.6-1.7,6.4-1.7c3.1,0,5.2,0.4,6.5,1.3
			s1.9,2.4,1.9,4.5c0,2.6-2.9,4.2-8.7,5c-2.3,0.3-4.2,0.6-5.6,0.8c-6.2,0.9-10.6,2.7-13.3,5.2c-2.7,2.6-4,6.3-4,11.1
			c0,5.2,1.3,9.3,4,12.1c2.7,2.8,6.5,4.2,11.5,4.2c3.7,0,7-0.7,9.8-2.1s5.1-3.4,6.8-6.1c0,1.2,0.2,2.4,0.4,3.6c0.3,1,0.6,2,1.1,2.9
			h14.3v-2.3C501.9,133.2,501.1,132.5,500.7,131.4z M486.9,115.6c0,3.7-1.1,6.5-3.2,8.6s-5,3.1-8.7,3.1c-2.1,0-3.8-0.6-5-1.7
			s-1.8-2.6-1.8-4.5c0-1.8,0.4-3.3,1.4-4.3s2.7-1.9,5.1-2.6c0.1,0,1.6-0.4,4.5-1s5.5-1.5,7.7-2.5V115.6z"/>
		<path class="st0" d="M531.2,94.4v-9.6h-7.9v-14h-13.6v14h-6.8v9.6h6.8v27.7c0,5.8,1,9.6,2.9,11.6c2,1.9,5.5,2.9,10.8,2.9
			c0.4,0,1.6,0,3.3-0.1c1.7-0.1,3.2-0.2,4.5-0.2l0,0v-10.2h-3.3c-1.9,0-3.1-0.2-3.7-0.6c-0.6-0.5-0.9-1.3-0.9-2.7V94.4L531.2,94.4
			L531.2,94.4z"/>
	</g>
</g>
</svg>
